<?xml version="1.0" encoding="UTF-8" standalone="no"?>
<!-- Generator: Adobe Illustrator 16.0.0, SVG Export Plug-In . SVG Version: 6.00 Build 0)  -->

<svg
   xmlns:dc="http://purl.org/dc/elements/1.1/"
   xmlns:cc="http://creativecommons.org/ns#"
   xmlns:rdf="http://www.w3.org/1999/02/22-rdf-syntax-ns#"
   xmlns:svg="http://www.w3.org/2000/svg"
   xmlns="http://www.w3.org/2000/svg"
   xmlns:sodipodi="http://sodipodi.sourceforge.net/DTD/sodipodi-0.dtd"
   xmlns:inkscape="http://www.inkscape.org/namespaces/inkscape"
   version="1.1"
   id="Capa_1"
   x="0px"
   y="0px"
   width="444.81799"
   height="280.36801"
   viewBox="0 0 444.81799 280.36801"
   xml:space="preserve"
   inkscape:version="0.91 r13725"
   sodipodi:docname="angle-down.svg"><metadata
     id="metadata41"><rdf:RDF><cc:Work
         rdf:about=""><dc:format>image/svg+xml</dc:format><dc:type
           rdf:resource="http://purl.org/dc/dcmitype/StillImage" /><dc:title></dc:title></cc:Work></rdf:RDF></metadata><defs
     id="defs39" /><sodipodi:namedview
     pagecolor="#ffffff"
     bordercolor="#666666"
     borderopacity="1"
     objecttolerance="10"
     gridtolerance="10"
     guidetolerance="10"
     inkscape:pageopacity="0"
     inkscape:pageshadow="2"
     inkscape:window-width="822"
     inkscape:window-height="480"
     id="namedview37"
     showgrid="false"
     fit-margin-top="0"
     fit-margin-left="0"
     fit-margin-right="0"
     fit-margin-bottom="0"
     inkscape:zoom="0.53055288"
     inkscape:cx="222.4095"
     inkscape:cy="140.1845"
     inkscape:window-x="0"
     inkscape:window-y="0"
     inkscape:window-maximized="0"
     inkscape:current-layer="Capa_1" /><g
     id="g3"
     transform="translate(0,-82.226)"><path
       d="M 434.252,114.203 412.843,92.787 c -7.419,-7.04 -16.084,-10.561 -25.975,-10.561 -10.095,0 -18.657,3.521 -25.7,10.561 L 222.41,231.549 83.653,92.791 C 76.611,85.751 68.047,82.23 57.956,82.23 48.06,82.23 39.397,85.751 31.977,92.791 L 10.849,114.207 C 3.615,121.436 0,130.099 0,140.188 c 0,10.277 3.619,18.842 10.848,25.693 l 185.864,185.865 c 6.855,7.23 15.416,10.848 25.697,10.848 10.088,0 18.75,-3.617 25.977,-10.848 L 434.251,165.881 c 7.043,-7.044 10.567,-15.608 10.567,-25.693 0.001,-9.901 -3.523,-18.559 -10.566,-25.985 z"
       id="path5"
       inkscape:connector-curvature="0" /></g><g
     id="g7"
     transform="translate(0,-82.226)" /><g
     id="g9"
     transform="translate(0,-82.226)" /><g
     id="g11"
     transform="translate(0,-82.226)" /><g
     id="g13"
     transform="translate(0,-82.226)" /><g
     id="g15"
     transform="translate(0,-82.226)" /><g
     id="g17"
     transform="translate(0,-82.226)" /><g
     id="g19"
     transform="translate(0,-82.226)" /><g
     id="g21"
     transform="translate(0,-82.226)" /><g
     id="g23"
     transform="translate(0,-82.226)" /><g
     id="g25"
     transform="translate(0,-82.226)" /><g
     id="g27"
     transform="translate(0,-82.226)" /><g
     id="g29"
     transform="translate(0,-82.226)" /><g
     id="g31"
     transform="translate(0,-82.226)" /><g
     id="g33"
     transform="translate(0,-82.226)" /><g
     id="g35"
     transform="translate(0,-82.226)" /></svg>